# Blender v2.82 (sub 7) OBJ File: ''
# www.blender.org
mtllib rock1.mtl
o trunk1
v -1.593039 -3.062193 -0.074300
v 0.972167 -2.309793 2.297745
v -1.830996 -2.704336 2.298515
v -3.814397 -1.244739 2.262828
v -3.697222 -1.542174 -0.110269
v -3.838032 0.522279 -0.095394
v -3.839065 0.960134 2.277456
v -2.333555 2.459754 -0.098172
v -1.902014 2.624866 2.278564
v 0.850931 2.646058 -0.076607
v 1.132595 2.829139 2.299587
v 3.505803 0.858607 -0.069595
v 3.244198 1.359514 2.302821
v 3.044042 -0.635892 2.287593
v 3.435246 -1.272026 -0.084820
v 1.580702 -2.803103 -0.070685
v 0.239768 2.631757 4.673177
v 0.837652 -2.326612 4.675292
v 2.844721 1.173435 4.676893
v -3.290537 2.421456 4.651660
v -4.472868 -1.065978 4.635677
v -2.219258 -2.473903 4.671505
v 2.903514 -0.817017 4.661435
v -1.148010 -3.800389 -4.819902
v -3.834939 -0.365284 -4.841061
v 3.977046 -2.146509 -4.829967
v 1.286347 1.293146 -4.818227
v 3.658619 0.021670 -4.815240
v 1.828007 -3.722611 -4.816019
v -1.371638 -3.432616 -2.447099
v 2.033731 -3.626209 -2.438576
v -3.780795 -2.056353 -2.483007
v -3.486764 -2.460170 -4.855643
v -3.802720 0.088948 -2.468220
v -1.539378 1.282609 -4.839539
v -1.776060 1.634133 -2.466707
v -4.879233 0.970252 4.650352
v 1.261962 1.827070 -2.445653
v 3.405372 0.368213 -2.442412
v 3.944781 -2.020895 -2.458694
vt 0.069400 0.500000
vt 0.000000 0.250000
vt 0.069400 0.250000
vt 0.128300 0.250000
vt 0.128300 0.500000
vt 0.187100 0.500000
vt 0.187100 0.250000
vt 0.256500 0.500000
vt 0.256500 0.250000
vt 0.318400 0.500000
vt 0.325900 0.250000
vt 0.384800 0.500000
vt 0.384800 0.250000
vt 0.439000 0.250000
vt 0.443700 0.500000
vt 0.513100 0.500000
vt 0.513100 0.250000
vt 0.663000 0.219700
vt 0.827600 0.387600
vt 0.662100 0.317100
vt 0.732600 0.151500
vt 0.898100 0.222000
vt 0.897200 0.319400
vt 0.730300 0.386600
vt 0.732900 0.922400
vt 0.665700 0.755500
vt 0.899800 0.855200
vt 0.832600 0.688300
vt 0.900800 0.757800
vt 0.830300 0.923400
vt 0.000000 1.000000
vt 0.069400 0.750000
vt 0.069400 1.000000
vt 0.000000 0.750000
vt 0.000000 0.000000
vt 0.128300 0.750000
vt 0.128300 1.000000
vt 0.128300 0.000000
vt 0.069400 0.000000
vt 0.187100 1.000000
vt 0.187100 0.750000
vt 0.256500 1.000000
vt 0.256500 0.750000
vt 0.256500 0.000000
vt 0.187100 0.000000
vt 0.325900 1.000000
vt 0.325900 0.750000
vt 0.384800 0.750000
vt 0.384800 1.000000
vt 0.384800 0.000000
vt 0.325900 0.000000
vt 0.450600 0.750000
vt 0.443700 1.000000
vt 0.443700 0.000000
vt 0.513100 1.000000
vt 0.513100 0.750000
vt 0.000000 0.500000
vt 0.829900 0.152500
vt 0.664700 0.852900
vt 0.735200 0.687300
vt 0.513100 0.000000
vn -0.2752 -0.9492 0.1526
vn 0.3987 -0.9078 0.1298
vn -0.2327 -0.9704 0.0643
vn -0.8911 -0.4450 -0.0891
vn -0.8764 -0.4786 0.0543
vn -0.9545 0.2908 -0.0662
vn -0.8791 0.4375 -0.1890
vn -0.4917 0.8530 -0.1753
vn -0.2872 0.9568 -0.0448
vn 0.2281 0.9548 -0.1904
vn 0.3044 0.9522 0.0272
vn 0.9044 0.4235 -0.0527
vn 0.8967 0.4351 0.0813
vn 0.8862 -0.4431 0.1355
vn 0.8843 -0.3999 0.2412
vn 0.3701 -0.8730 0.3175
vn -0.0161 -0.0545 0.9984
vn -0.0062 0.0075 1.0000
vn 0.0020 -0.0025 1.0000
vn 0.0068 -0.0108 0.9999
vn -0.0020 0.0003 1.0000
vn -0.0023 0.0218 0.9998
vn 0.0121 -0.0074 0.9999
vn 0.0075 -0.0018 -1.0000
vn 0.0304 -0.0001 -0.9995
vn -0.0125 0.0016 -0.9999
vn 0.0057 0.0009 -1.0000
vn 0.0053 0.0076 -1.0000
vn 0.0016 -0.0110 -0.9999
vn 0.3132 -0.9481 0.0541
vn -0.3023 -0.9452 0.1234
vn -0.1998 -0.9718 0.1252
vn 0.3243 -0.9273 0.1870
vn 0.3111 -0.9493 0.0444
vn -0.8573 -0.5082 0.0816
vn -0.7715 -0.6363 0.0012
vn -0.8273 -0.5015 -0.2531
vn -0.2995 -0.9528 0.0506
vn -0.9338 0.3417 -0.1056
vn -0.8752 0.4769 -0.0807
vn -0.2761 0.9475 -0.1615
vn -0.3454 0.9026 -0.2570
vn -0.4725 0.8612 -0.1873
vn -0.8901 0.2219 -0.3981
vn 0.2517 0.9534 -0.1665
vn 0.2800 0.9296 -0.2395
vn 0.8277 0.5586 -0.0548
vn 0.8302 0.5572 -0.0163
vn 0.8226 0.5292 0.2080
vn 0.1435 0.9796 0.1408
vn 0.9345 -0.3203 0.1552
vn 0.9042 -0.4255 0.0372
vn 0.8829 -0.4657 0.0606
vn 0.1124 -0.0388 0.9929
vn 0.1822 0.1226 -0.9756
vn 0.0409 -0.1012 -0.9940
usemtl Default_OBJ
s 1
f 1/1/1 2/2/2 3/3/3
f 1/1/1 4/4/4 5/5/5
f 6/6/6 4/4/4 7/7/7
f 8/8/8 7/7/7 9/9/9
f 10/10/10 9/9/9 11/11/11
f 12/12/12 11/11/11 13/13/13
f 12/12/12 14/14/14 15/15/15
f 16/16/16 14/14/14 2/17/2
f 17/18/17 18/19/18 19/20/19
f 20/21/20 21/22/21 18/19/18
f 21/22/21 22/23/22 18/19/18
f 23/24/23 19/20/19 18/19/18
f 24/25/24 25/26/25 26/27/26
f 25/26/25 27/28/27 26/27/26
f 27/28/27 28/29/28 26/27/26
f 29/30/29 24/25/24 26/27/26
f 29/31/30 30/32/31 24/33/32
f 31/34/33 1/1/1 30/32/31
f 18/35/34 3/3/3 2/2/2
f 24/33/32 32/36/35 33/37/36
f 30/32/31 5/5/5 32/36/35
f 21/38/37 3/3/3 22/39/38
f 25/40/39 32/36/35 34/41/40
f 34/41/40 5/5/5 6/6/6
f 21/38/37 7/7/7 4/4/4
f 35/42/41 34/41/40 36/43/42
f 36/43/42 6/6/6 8/8/8
f 20/44/43 7/7/7 37/45/44
f 27/46/45 36/43/42 38/47/46
f 38/47/46 8/8/8 10/10/10
f 20/44/43 11/11/11 9/9/9
f 27/46/45 39/48/47 28/49/48
f 38/47/46 12/12/12 39/48/47
f 19/50/49 11/11/11 17/51/50
f 28/49/48 40/52/51 26/53/52
f 39/48/47 15/15/15 40/52/51
f 23/54/53 13/13/13 19/50/49
f 29/55/30 40/52/51 31/56/33
f 31/56/33 15/15/15 16/16/16
f 23/54/53 2/17/2 14/14/14
f 1/1/1 16/57/16 2/2/2
f 1/1/1 3/3/3 4/4/4
f 6/6/6 5/5/5 4/4/4
f 8/8/8 6/6/6 7/7/7
f 10/10/10 8/8/8 9/9/9
f 12/12/12 10/10/10 11/11/11
f 12/12/12 13/13/13 14/14/14
f 16/16/16 15/15/15 14/14/14
f 17/18/17 20/21/20 18/19/18
f 20/21/20 37/58/54 21/22/21
f 24/25/24 33/59/55 25/26/25
f 25/26/25 35/60/56 27/28/27
f 29/31/30 31/34/33 30/32/31
f 31/34/33 16/57/16 1/1/1
f 18/35/34 22/39/38 3/3/3
f 24/33/32 30/32/31 32/36/35
f 30/32/31 1/1/1 5/5/5
f 21/38/37 4/4/4 3/3/3
f 25/40/39 33/37/36 32/36/35
f 34/41/40 32/36/35 5/5/5
f 21/38/37 37/45/44 7/7/7
f 35/42/41 25/40/39 34/41/40
f 36/43/42 34/41/40 6/6/6
f 20/44/43 9/9/9 7/7/7
f 27/46/45 35/42/41 36/43/42
f 38/47/46 36/43/42 8/8/8
f 20/44/43 17/51/50 11/11/11
f 27/46/45 38/47/46 39/48/47
f 38/47/46 10/10/10 12/12/12
f 19/50/49 13/13/13 11/11/11
f 28/49/48 39/48/47 40/52/51
f 39/48/47 12/12/12 15/15/15
f 23/54/53 14/14/14 13/13/13
f 29/55/30 26/53/52 40/52/51
f 31/56/33 40/52/51 15/15/15
f 23/54/53 18/61/34 2/17/2
